<?xml version="1.0" encoding="UTF-8" standalone="no"?>
<svg width="40px" height="40px" viewBox="0 0 40 40" version="1.1" xmlns="http://www.w3.org/2000/svg" xmlns:xlink="http://www.w3.org/1999/xlink">
    <!-- Generator: Sketch 43.1 (39012) - http://www.bohemiancoding.com/sketch -->
    <title>gougou</title>
    <desc>Created with Sketch.</desc>
    <defs></defs>
    <g id="妥妥递后台系统" stroke="none" stroke-width="1" fill="none" fill-rule="evenodd">
        <g id="009妥妥递后台-个人中心-修改绑定手1机（16）" transform="translate(-748.000000, -291.000000)" fill-rule="nonzero" fill="#29C76C">
            <g id="绑定成功" transform="translate(721.000000, 271.000000)">
                <g id="gougou" transform="translate(27.000000, 20.000000)">
                    <path d="M20,0 C8.98876406,0 0,8.98876406 0,20 C0,31.0112359 8.98876406,40 20,40 C31.0112359,40 40,31.0112359 40,20 C40,8.98876406 31.0112359,0 20,0 Z M20,38.2022472 C9.97752809,38.2022472 1.79775281,30.0224719 1.79775281,20 C1.79775281,9.97752809 9.97752809,1.79775281 20,1.79775281 C30.0224719,1.79775281 38.2022472,9.97752809 38.2022472,20 C38.2022472,30.0224719 30.0224719,38.2022472 20,38.2022472 Z" id="Shape"></path>
                    <path d="M30.2921348,11.1910112 C29.7977528,10.8314607 29.0786517,10.9662921 28.7191011,11.4606741 L18.1123595,26.6516854 L11.0112359,20.9438202 C10.5168539,20.5393259 9.8426966,20.6292135 9.43820227,21.1235955 C9.03370789,21.6179775 9.12359551,22.3370787 9.61797754,22.6966292 L17.6629214,29.1685393 C17.8426966,29.3483146 18.1123596,29.4382023 18.3820225,29.4382023 L18.5617977,29.4382023 C18.8764045,29.3932584 19.1460674,29.2134832 19.3258427,28.9887641 L30.6067416,12.8089887 C30.9213483,12.2696629 30.8314607,11.5505618 30.2921348,11.1910112 L30.2921348,11.1910112 Z" id="Shape"></path>
                </g>
            </g>
        </g>
    </g>
</svg>