<?xml version="1.0" encoding="UTF-8" standalone="no"?>
<svg width="18px" height="14px" viewBox="0 0 18 14" version="1.1" xmlns="http://www.w3.org/2000/svg" xmlns:xlink="http://www.w3.org/1999/xlink">
    <!-- Generator: Sketch 43.1 (39012) - http://www.bohemiancoding.com/sketch -->
    <title>菜单</title>
    <desc>Created with Sketch.</desc>
    <defs></defs>
    <g id="托管方后台系统" stroke="none" stroke-width="1" fill="none" fill-rule="evenodd">
        <g id="首页" transform="translate(-231.000000, -73.000000)" fill-rule="nonzero" fill="#3D82F7">
            <g id="Group-5" transform="translate(220.000000, 60.000000)">
                <g id="菜单" transform="translate(11.000000, 13.000000)">
                    <path d="M18,1.15384615 C18,1.8076923 17.55,2.3076923 16.9615385,2.3076923 L1.03846154,2.3076923 C0.45,2.3076923 0,1.8076923 0,1.15384615 L0,1.15384615 C0,0.5 0.45,0 1.03846154,0 L16.9615385,0 C17.55,0 18,0.5 18,1.15384615 L18,1.15384615 Z M18,6.53846154 C18,7.1923077 17.55,7.6923077 16.9615385,7.6923077 L1.03846154,7.6923077 C0.45,7.6923077 0,7.1923077 0,6.53846154 L0,6.53846154 C0,5.88461539 0.45,5.38461539 1.03846154,5.38461539 L16.9615385,5.38461539 C17.55,5.38461539 18,5.88461539 18,6.53846154 L18,6.53846154 Z M18,11.9230769 C18,12.5769231 17.55,13.0769231 16.9615385,13.0769231 L1.03846154,13.0769231 C0.45,13.0769231 0,12.5769231 0,11.9230769 L0,11.9230769 C0,11.2692308 0.45,10.7692308 1.03846154,10.7692308 L16.9615385,10.7692308 C17.55,10.7692308 18,11.2692308 18,11.9230769 L18,11.9230769 Z" id="Shape"></path>
                </g>
            </g>
        </g>
    </g>
</svg>