<?xml version="1.0" encoding="UTF-8" standalone="no"?>
<svg width="21px" height="28px" viewBox="0 0 21 28" version="1.1" xmlns="http://www.w3.org/2000/svg" xmlns:xlink="http://www.w3.org/1999/xlink">
    <!-- Generator: Sketch 43.1 (39012) - http://www.bohemiancoding.com/sketch -->
    <title>手机号</title>
    <desc>Created with Sketch.</desc>
    <defs></defs>
    <g id="妥妥递后台系统" stroke="none" stroke-width="1" fill="none" fill-rule="evenodd">
        <g id="002妥妥递后台密码找回" transform="translate(-764.000000, -426.000000)" fill-rule="nonzero" fill="#FFFFFF">
            <g id="Group-2-Copy-4" transform="translate(755.000000, 420.000000)">
                <g id="手机号" transform="translate(9.000000, 6.000000)">
                    <path d="M17.5,0 L3.5,0 C1.54,0 0,1.54 0,3.5 L0,24.5 C0,26.46 1.54,28 3.5,28 L17.5,28 C19.46,28 21,26.46 21,24.5 L21,3.5 C21,1.54 19.46,0 17.5,0 Z M19.6,24.5 C19.6,25.69 18.69,26.6 17.5,26.6 L3.5,26.6 C2.31,26.6 1.4,25.69 1.4,24.5 L1.4,21 L19.6,21 L19.6,24.5 Z M19.6,19.6 L1.4,19.6 L1.4,5.6 L19.6,5.6 L19.6,19.6 Z M19.6,4.2 L1.4,4.2 L1.4,3.5 C1.4,2.31 2.31,1.4 3.5,1.4 L17.5,1.4 C18.69,1.4 19.6,2.31 19.6,3.5 L19.6,4.2 L19.6,4.2 Z M10.5,25.2 C11.27,25.2 11.9,24.57 11.9,23.8 C11.9,23.03 11.27,22.4 10.5,22.4 C9.73,22.4 9.1,23.03 9.1,23.8 C9.1,24.57 9.73,25.2 10.5,25.2 Z" id="Shape"></path>
                </g>
            </g>
        </g>
    </g>
</svg>