<?xml version="1.0" encoding="UTF-8" standalone="no"?>
<svg width="23px" height="28px" viewBox="0 0 23 28" version="1.1" xmlns="http://www.w3.org/2000/svg" xmlns:xlink="http://www.w3.org/1999/xlink">
    <!-- Generator: Sketch 43.1 (39012) - http://www.bohemiancoding.com/sketch -->
    <title>密码</title>
    <desc>Created with Sketch.</desc>
    <defs></defs>
    <g id="妥妥递后台系统" stroke="none" stroke-width="1" fill="none" fill-rule="evenodd">
        <g id="002妥妥递后台密码找回" transform="translate(-765.000000, -565.000000)" fill-rule="nonzero" fill="#FFFFFF">
            <g id="Group-2-Copy-2" transform="translate(755.000000, 559.000000)">
                <g id="密码" transform="translate(10.000000, 6.000000)">
                    <path d="M18.6538835,10.3201413 L17.807585,10.3201413 L17.807585,7.0410415 C17.807585,3.09888289 14.9982917,0.0117293003 11.0070971,0.0117293003 C6.99985771,0.0117293003 4.26907799,3.16467882 4.26907799,7.0410415 L4.26907799,10.3201413 L3.42281054,10.3201413 C1.55642636,10.3201413 0.038362584,11.8610595 0.038362584,13.7562683 L0.038362584,24.0633433 C0.038362584,25.9585831 1.55642636,27.4994703 3.42281054,27.4994703 L18.6538835,27.4994703 C20.5202366,27.4994703 22.0383626,25.9585831 22.0383626,24.0633433 L22.0383626,13.7562683 C22.0383626,11.8610285 20.5202366,10.3201413 18.6538835,10.3201413 Z M5.96099105,7.0410415 C5.96099105,4.11362027 7.93272333,1.7298239 11.0070971,1.7298239 C14.0493192,1.7298239 16.115019,4.06262533 16.115019,7.0410415 L16.115019,10.3201413 L5.96099105,10.3201413 L5.96099105,7.0410415 Z M20.3457655,24.0633433 C20.3457655,25.0109477 19.586718,25.7814068 18.6538835,25.7814068 L3.42281054,25.7814068 C2.48994495,25.7814068 1.73024453,25.0109477 1.73024453,24.0633433 L1.73024453,13.7562683 C1.73024453,12.8086328 2.48994495,12.0382048 3.42281054,12.0382048 L18.6538835,12.0382048 C19.586718,12.0382048 20.3457655,12.8086639 20.3457655,13.7562683 L20.3457655,24.0633433 Z M11.0379739,15.4730259 C10.1038024,15.4730259 9.34609198,16.2434539 9.34609198,17.1923953 C9.34609198,17.8283708 9.68666986,18.3831586 10.1923594,18.6802352 L10.1923594,21.4876007 C10.1923594,21.9614184 10.5708726,22.3452798 11.0379739,22.3452798 C11.5057593,22.3452798 11.8842725,21.9614184 11.8842725,21.4876007 L11.8842725,18.6801109 C12.3900864,18.3830342 12.7306021,17.8282775 12.7306021,17.1923953 C12.7306021,16.2434538 11.9728607,15.4730259 11.0379739,15.4730259 Z" id="Shape"></path>
                </g>
            </g>
        </g>
    </g>
</svg>