<?xml version="1.0" encoding="UTF-8" standalone="no"?>
<svg width="32px" height="32px" viewBox="0 0 32 32" version="1.1" xmlns="http://www.w3.org/2000/svg" xmlns:xlink="http://www.w3.org/1999/xlink">
    <!-- Generator: Sketch 43.1 (39012) - http://www.bohemiancoding.com/sketch -->
    <title>客服</title>
    <desc>Created with Sketch.</desc>
    <defs></defs>
    <g id="妥妥递后台系统" stroke="none" stroke-width="1" fill="none" fill-rule="evenodd">
        <g id="001妥妥递后台登录（16）" transform="translate(-1227.000000, -23.000000)" fill-rule="nonzero" fill="#FFFFFF">
            <g id="Group" transform="translate(365.000000, 20.000000)">
                <g id="客服" transform="translate(862.000000, 3.000000)">
                    <path d="M16,7.20862055 C10.2713962,7.20862055 5.61113627,11.868847 5.61113627,17.5974507 C5.61113627,23.3257191 10.2713627,27.986348 16,27.986348 C21.7286373,27.986348 26.3888637,23.3257526 26.3888637,17.5974843 C26.3888637,11.8688805 21.7286373,7.20862055 16,7.20862055 L16,7.20862055 Z M16,26.3881258 C11.1528386,26.3881258 7.20942558,22.4446457 7.20942558,17.5975514 C7.20942558,12.750457 11.1529057,8.80697694 16,8.80697694 C20.8470943,8.80697694 24.7905744,12.7504235 24.7905744,17.5975514 C24.7905744,22.4446792 20.8471279,26.3881258 16,26.3881258 L16,26.3881258 Z" id="Shape"></path>
                    <path d="M30.3846373,13.6025828 L30.3032621,13.6025828 C29.5439161,5.97896855 23.4201761,0.0170733753 16,0.0170733753 C8.5798239,0.0170733753 2.45608386,5.97896855 1.69673795,13.6025493 L1.61536268,13.6025493 C0.733886792,13.6025493 0.0170733753,14.3197317 0.0170733753,15.2008386 L0.0170733753,19.9957065 C0.0170733753,20.8768134 0.733886792,21.5940294 1.61536268,21.5940294 L3.21368553,21.5940294 C4.09516143,21.5940294 4.81197484,20.8768134 4.81197484,19.9957065 L4.81197484,15.2008386 C4.81197484,14.3523354 4.14527463,13.6625241 3.3088805,13.6121761 C4.05269602,6.86809224 9.4562348,1.61542977 15.9999665,1.61542977 C22.5436981,1.61542977 27.9472369,6.86809224 28.6911195,13.6121761 C27.8546583,13.6625241 27.1879916,14.3523354 27.1879916,15.2008386 L27.1879916,19.9957065 C27.1879916,20.8768134 27.904805,21.5940294 28.7862809,21.5940294 L30.3846038,21.5940294 C31.2660797,21.5940294 31.9828931,20.8768134 31.9828931,19.9957065 L31.9828931,15.2008386 C31.982826,14.3197317 31.2660126,13.6025828 30.3845702,13.6025828 L30.3846373,13.6025828 Z M3.21365199,19.9957065 L1.61532914,19.9957065 L1.61532914,15.2008386 L3.21365199,15.2008386 L3.21365199,19.9957065 Z M30.3846373,19.9957065 L28.7863145,19.9957065 L28.7863145,15.2008386 L30.3846373,15.2008386 L30.3846373,19.9957065 Z M9.60684277,30.3846373 L22.3931908,30.3846373 L22.3931908,31.9829266 L9.60684277,31.9829266 L9.60684277,30.3846373 Z" id="Shape"></path>
                </g>
            </g>
        </g>
    </g>
</svg>